<svg xmlns="http://www.w3.org/2000/svg" viewBox="0 0 1400 1900" font-family="'Segoe UI', Arial, sans-serif">
  <!-- Background -->
  <rect width="1400" height="1900" fill="#ffffff"/>

  <!-- Title -->
  <text x="700" y="50" text-anchor="middle" font-size="28" font-weight="bold" fill="#1e293b">You.us — 프로젝트 디렉토리 아키텍처</text>
  <text x="700" y="78" text-anchor="middle" font-size="14" fill="#64748b">Next.js 16 · React 19 · TypeScript · TailwindCSS · Zustand · TanStack Query</text>
  <line x1="60" y1="92" x2="1340" y2="92" stroke="#e2e8f0" stroke-width="1.5"/>

  <!-- ===== TECH STACK BADGES ===== -->
  <rect x="60" y="104" width="90" height="26" rx="6" fill="#eef2ff"/>
  <text x="105" y="121" text-anchor="middle" font-size="11" fill="#4f46e5">Next.js 16</text>
  <rect x="158" y="104" width="80" height="26" rx="6" fill="#e0f2fe"/>
  <text x="198" y="121" text-anchor="middle" font-size="11" fill="#0284c7">React 19</text>
  <rect x="246" y="104" width="74" height="26" rx="6" fill="#fff7ed"/>
  <text x="283" y="121" text-anchor="middle" font-size="11" fill="#ea580c">Zustand</text>
  <rect x="328" y="104" width="110" height="26" rx="6" fill="#fdf2f8"/>
  <text x="383" y="121" text-anchor="middle" font-size="11" fill="#db2777">TanStack Query</text>
  <rect x="446" y="104" width="54" height="26" rx="6" fill="#f0fdf4"/>
  <text x="473" y="121" text-anchor="middle" font-size="11" fill="#16a34a">Zod</text>
  <rect x="508" y="104" width="70" height="26" rx="6" fill="#f0fdf4"/>
  <text x="543" y="121" text-anchor="middle" font-size="11" fill="#059669">OpenAI</text>
  <rect x="586" y="104" width="60" height="26" rx="6" fill="#eff6ff"/>
  <text x="616" y="121" text-anchor="middle" font-size="11" fill="#2563eb">Axios</text>
  <rect x="654" y="104" width="80" height="26" rx="6" fill="#ecfeff"/>
  <text x="694" y="121" text-anchor="middle" font-size="11" fill="#0891b2">Tailwind v4</text>

  <!-- ===== ROOT src/ ===== -->
  <rect x="60" y="150" width="200" height="38" rx="8" fill="#1e293b" stroke="#334155" stroke-width="1.5"/>
  <text x="160" y="174" text-anchor="middle" font-size="15" font-weight="bold" fill="#f8fafc">📁 src/</text>

  <!-- Vertical trunk line -->
  <line x1="160" y1="188" x2="160" y2="218" stroke="#94a3b8" stroke-width="1.5"/>
  <!-- Branch line horizontal -->
  <line x1="160" y1="218" x2="1290" y2="218" stroke="#94a3b8" stroke-width="1.5"/>

  <!-- Branch drop lines -->
  <line x1="160" y1="218" x2="160" y2="248" stroke="#94a3b8" stroke-width="1.5"/>
  <line x1="330" y1="218" x2="330" y2="248" stroke="#94a3b8" stroke-width="1.5"/>
  <line x1="520" y1="218" x2="520" y2="248" stroke="#94a3b8" stroke-width="1.5"/>
  <line x1="700" y1="218" x2="700" y2="248" stroke="#94a3b8" stroke-width="1.5"/>
  <line x1="870" y1="218" x2="870" y2="248" stroke="#94a3b8" stroke-width="1.5"/>
  <line x1="1040" y1="218" x2="1040" y2="248" stroke="#94a3b8" stroke-width="1.5"/>
  <line x1="1210" y1="218" x2="1210" y2="248" stroke="#94a3b8" stroke-width="1.5"/>

  <!-- ======= COLUMN 1: app/ ======= -->
  <rect x="60" y="248" width="200" height="38" rx="8" fill="#eef2ff" stroke="#6366f1" stroke-width="1.5"/>
  <text x="160" y="268" text-anchor="middle" font-size="14" font-weight="bold" fill="#4338ca">📁 app/</text>
  <text x="160" y="282" text-anchor="middle" font-size="10" fill="#6366f1">Next.js App Router</text>

  <line x1="160" y1="286" x2="160" y2="316" stroke="#a5b4fc" stroke-width="1.5" stroke-dasharray="4 2"/>
  <rect x="60" y="316" width="200" height="30" rx="6" fill="#e0e7ff" stroke="#6366f1" stroke-width="1"/>
  <text x="160" y="336" text-anchor="middle" font-size="12" fill="#4338ca">Route Groups</text>

  <line x1="160" y1="346" x2="160" y2="366" stroke="#a5b4fc" stroke-width="1.5"/>
  <line x1="80" y1="366" x2="240" y2="366" stroke="#a5b4fc" stroke-width="1.5"/>

  <line x1="95" y1="366" x2="95" y2="386" stroke="#a5b4fc" stroke-width="1.5"/>
  <rect x="60" y="386" width="70" height="26" rx="5" fill="#e0e7ff" stroke="#6366f1" stroke-width="1"/>
  <text x="95" y="403" text-anchor="middle" font-size="11" fill="#4338ca">(auth)</text>

  <line x1="160" y1="366" x2="160" y2="386" stroke="#a5b4fc" stroke-width="1.5"/>
  <rect x="125" y="386" width="70" height="26" rx="5" fill="#e0e7ff" stroke="#6366f1" stroke-width="1"/>
  <text x="160" y="403" text-anchor="middle" font-size="11" fill="#4338ca">(public)</text>

  <line x1="230" y1="366" x2="230" y2="386" stroke="#a5b4fc" stroke-width="1.5"/>
  <rect x="180" y="386" width="96" height="26" rx="5" fill="#e0e7ff" stroke="#6366f1" stroke-width="1"/>
  <text x="228" y="403" text-anchor="middle" font-size="11" fill="#4338ca">(with-layout)</text>

  <!-- (auth) sub items -->
  <line x1="95" y1="412" x2="95" y2="432" stroke="#a5b4fc" stroke-width="1"/>
  <rect x="52" y="432" width="90" height="22" rx="4" fill="#f5f3ff"/>
  <text x="97" y="447" text-anchor="middle" font-size="10" fill="#6366f1">login / signup</text>
  <line x1="95" y1="454" x2="95" y2="472" stroke="#a5b4fc" stroke-width="1"/>
  <rect x="55" y="472" width="86" height="20" rx="4" fill="#f5f3ff"/>
  <text x="98" y="486" text-anchor="middle" font-size="10" fill="#6366f1">Naver OAuth</text>

  <!-- (public) sub items -->
  <line x1="160" y1="412" x2="160" y2="432" stroke="#a5b4fc" stroke-width="1"/>
  <rect x="118" y="432" width="86" height="22" rx="4" fill="#f5f3ff"/>
  <text x="161" y="447" text-anchor="middle" font-size="10" fill="#6366f1">intro / recommend</text>
  <line x1="160" y1="454" x2="160" y2="472" stroke="#a5b4fc" stroke-width="1"/>
  <rect x="120" y="472" width="82" height="20" rx="4" fill="#f5f3ff"/>
  <text x="161" y="486" text-anchor="middle" font-size="10" fill="#6366f1">AI 추천 (OpenAI)</text>

  <!-- (with-layout) sub items -->
  <line x1="228" y1="412" x2="228" y2="432" stroke="#a5b4fc" stroke-width="1"/>
  <rect x="182" y="432" width="90" height="22" rx="4" fill="#f5f3ff"/>
  <text x="227" y="447" text-anchor="middle" font-size="10" fill="#6366f1">home, cart</text>
  <line x1="228" y1="454" x2="228" y2="472" stroke="#a5b4fc" stroke-width="1"/>
  <rect x="182" y="472" width="90" height="20" rx="4" fill="#f5f3ff"/>
  <text x="227" y="486" text-anchor="middle" font-size="10" fill="#6366f1">products/[...slug]</text>
  <line x1="228" y1="492" x2="228" y2="510" stroke="#a5b4fc" stroke-width="1"/>
  <rect x="182" y="510" width="90" height="22" rx="4" fill="#ddd6fe" stroke="#6366f1" stroke-width="1"/>
  <text x="227" y="525" text-anchor="middle" font-size="10" fill="#4338ca">(protected)</text>
  <line x1="228" y1="532" x2="228" y2="548" stroke="#a5b4fc" stroke-width="1"/>
  <rect x="182" y="548" width="90" height="20" rx="4" fill="#f5f3ff"/>
  <text x="227" y="562" text-anchor="middle" font-size="10" fill="#6366f1">mypage / checkout</text>

  <!-- api/ -->
  <line x1="160" y1="570" x2="160" y2="590" stroke="#a5b4fc" stroke-width="1.5" stroke-dasharray="4 2"/>
  <rect x="93" y="590" width="134" height="26" rx="5" fill="#e0e7ff" stroke="#6366f1" stroke-width="1"/>
  <text x="160" y="607" text-anchor="middle" font-size="11" fill="#4338ca">api/recommend (Route)</text>

  <!-- ======= COLUMN 2: components/ ======= -->
  <rect x="230" y="248" width="200" height="38" rx="8" fill="#f0fdf4" stroke="#16a34a" stroke-width="1.5"/>
  <text x="330" y="268" text-anchor="middle" font-size="14" font-weight="bold" fill="#15803d">📁 components/</text>
  <text x="330" y="282" text-anchor="middle" font-size="10" fill="#16a34a">전역 공용 컴포넌트</text>

  <line x1="330" y1="286" x2="330" y2="316" stroke="#86efac" stroke-width="1.5" stroke-dasharray="4 2"/>
  <line x1="265" y1="316" x2="395" y2="316" stroke="#86efac" stroke-width="1.5"/>

  <line x1="275" y1="316" x2="275" y2="336" stroke="#86efac" stroke-width="1.5"/>
  <rect x="232" y="336" width="88" height="26" rx="5" fill="#dcfce7" stroke="#16a34a" stroke-width="1"/>
  <text x="276" y="353" text-anchor="middle" font-size="11" fill="#15803d">layout/</text>
  <line x1="276" y1="362" x2="276" y2="380" stroke="#86efac" stroke-width="1"/>
  <rect x="238" y="380" width="76" height="20" rx="4" fill="#f0fdf4"/>
  <text x="276" y="394" text-anchor="middle" font-size="10" fill="#16a34a">Header (Mobile+</text>
  <line x1="276" y1="400" x2="276" y2="416" stroke="#86efac" stroke-width="1"/>
  <rect x="238" y="416" width="76" height="20" rx="4" fill="#f0fdf4"/>
  <text x="276" y="430" text-anchor="middle" font-size="10" fill="#16a34a">Desktop)</text>
  <line x1="276" y1="436" x2="276" y2="452" stroke="#86efac" stroke-width="1"/>
  <rect x="238" y="452" width="76" height="20" rx="4" fill="#f0fdf4"/>
  <text x="276" y="466" text-anchor="middle" font-size="10" fill="#16a34a">Footer</text>
  <line x1="276" y1="472" x2="276" y2="488" stroke="#86efac" stroke-width="1"/>
  <rect x="238" y="488" width="76" height="20" rx="4" fill="#f0fdf4"/>
  <text x="276" y="502" text-anchor="middle" font-size="10" fill="#16a34a">Navigation</text>

  <line x1="385" y1="316" x2="385" y2="336" stroke="#86efac" stroke-width="1.5"/>
  <rect x="342" y="336" width="88" height="26" rx="5" fill="#dcfce7" stroke="#16a34a" stroke-width="1"/>
  <text x="386" y="353" text-anchor="middle" font-size="11" fill="#15803d">ui/</text>
  <line x1="386" y1="362" x2="386" y2="380" stroke="#86efac" stroke-width="1"/>
  <rect x="348" y="380" width="76" height="20" rx="4" fill="#f0fdf4"/>
  <text x="386" y="394" text-anchor="middle" font-size="10" fill="#16a34a">Button / Input</text>
  <line x1="386" y1="400" x2="386" y2="416" stroke="#86efac" stroke-width="1"/>
  <rect x="348" y="416" width="76" height="20" rx="4" fill="#f0fdf4"/>
  <text x="386" y="430" text-anchor="middle" font-size="10" fill="#16a34a">Modal / Loading</text>
  <line x1="386" y1="436" x2="386" y2="452" stroke="#86efac" stroke-width="1"/>
  <rect x="348" y="452" width="76" height="20" rx="4" fill="#f0fdf4"/>
  <text x="386" y="466" text-anchor="middle" font-size="10" fill="#16a34a">Pagination</text>
  <line x1="386" y1="472" x2="386" y2="488" stroke="#86efac" stroke-width="1"/>
  <rect x="348" y="488" width="76" height="20" rx="4" fill="#f0fdf4"/>
  <text x="386" y="502" text-anchor="middle" font-size="10" fill="#16a34a">ToastProvider</text>
  <line x1="386" y1="508" x2="386" y2="524" stroke="#86efac" stroke-width="1"/>
  <rect x="348" y="524" width="76" height="20" rx="4" fill="#f0fdf4"/>
  <text x="386" y="538" text-anchor="middle" font-size="10" fill="#16a34a">EmptyState</text>

  <!-- ======= COLUMN 3: features/ ======= -->
  <rect x="420" y="248" width="200" height="38" rx="8" fill="#fff7ed" stroke="#ea580c" stroke-width="1.5"/>
  <text x="520" y="268" text-anchor="middle" font-size="14" font-weight="bold" fill="#c2410c">📁 features/</text>
  <text x="520" y="282" text-anchor="middle" font-size="10" fill="#ea580c">도메인 단위 컴포넌트</text>

  <line x1="520" y1="286" x2="520" y2="316" stroke="#fdba74" stroke-width="1.5" stroke-dasharray="4 2"/>
  <rect x="460" y="316" width="120" height="26" rx="5" fill="#fed7aa" stroke="#ea580c" stroke-width="1"/>
  <text x="520" y="333" text-anchor="middle" font-size="11" fill="#c2410c">product/</text>
  <line x1="520" y1="342" x2="520" y2="360" stroke="#fdba74" stroke-width="1"/>
  <rect x="462" y="360" width="116" height="22" rx="4" fill="#fff7ed"/>
  <text x="520" y="375" text-anchor="middle" font-size="10" fill="#ea580c">ProductCard.tsx</text>
  <text x="520" y="395" text-anchor="middle" font-size="10" fill="#9ca3af">(재사용 상품 카드)</text>

  <!-- ======= COLUMN 4: lib/ ======= -->
  <rect x="600" y="248" width="200" height="38" rx="8" fill="#ecfeff" stroke="#0891b2" stroke-width="1.5"/>
  <text x="700" y="268" text-anchor="middle" font-size="14" font-weight="bold" fill="#0e7490">📁 lib/</text>
  <text x="700" y="282" text-anchor="middle" font-size="10" fill="#0891b2">비즈니스 로직 / 유틸</text>

  <line x1="700" y1="286" x2="700" y2="316" stroke="#67e8f9" stroke-width="1.5" stroke-dasharray="4 2"/>
  <line x1="616" y1="316" x2="784" y2="316" stroke="#67e8f9" stroke-width="1.5"/>

  <line x1="628" y1="316" x2="628" y2="336" stroke="#67e8f9" stroke-width="1.5"/>
  <rect x="586" y="336" width="86" height="26" rx="5" fill="#cffafe" stroke="#0891b2" stroke-width="1"/>
  <text x="629" y="353" text-anchor="middle" font-size="11" fill="#0e7490">api/</text>
  <line x1="629" y1="362" x2="629" y2="380" stroke="#67e8f9" stroke-width="1"/>
  <rect x="590" y="380" width="80" height="18" rx="3" fill="#ecfeff"/>
  <text x="630" y="393" text-anchor="middle" font-size="9.5" fill="#0891b2">fetchClient.ts</text>
  <line x1="629" y1="398" x2="629" y2="414" stroke="#67e8f9" stroke-width="1"/>
  <rect x="590" y="414" width="80" height="18" rx="3" fill="#ecfeff"/>
  <text x="630" y="427" text-anchor="middle" font-size="9.5" fill="#0891b2">auth / users</text>
  <line x1="629" y1="432" x2="629" y2="448" stroke="#67e8f9" stroke-width="1"/>
  <rect x="590" y="448" width="80" height="18" rx="3" fill="#ecfeff"/>
  <text x="630" y="461" text-anchor="middle" font-size="9.5" fill="#0891b2">products / cart</text>
  <line x1="629" y1="466" x2="629" y2="482" stroke="#67e8f9" stroke-width="1"/>
  <rect x="590" y="482" width="80" height="18" rx="3" fill="#ecfeff"/>
  <text x="630" y="495" text-anchor="middle" font-size="9.5" fill="#0891b2">checkout / mypage</text>
  <line x1="629" y1="500" x2="629" y2="516" stroke="#67e8f9" stroke-width="1"/>
  <rect x="590" y="516" width="80" height="18" rx="3" fill="#ecfeff"/>
  <text x="630" y="529" text-anchor="middle" font-size="9.5" fill="#0891b2">recommend</text>

  <line x1="700" y1="316" x2="700" y2="336" stroke="#67e8f9" stroke-width="1.5"/>
  <rect x="656" y="336" width="88" height="26" rx="5" fill="#cffafe" stroke="#0891b2" stroke-width="1"/>
  <text x="700" y="353" text-anchor="middle" font-size="11" fill="#0e7490">zustand/</text>
  <line x1="700" y1="362" x2="700" y2="380" stroke="#67e8f9" stroke-width="1"/>
  <rect x="662" y="380" width="78" height="18" rx="3" fill="#ecfeff"/>
  <text x="701" y="393" text-anchor="middle" font-size="9.5" fill="#0891b2">authStore.ts</text>
  <line x1="700" y1="398" x2="700" y2="414" stroke="#67e8f9" stroke-width="1"/>
  <rect x="662" y="414" width="78" height="18" rx="3" fill="#ecfeff"/>
  <text x="701" y="427" text-anchor="middle" font-size="9.5" fill="#0891b2">userStore.ts</text>
  <line x1="700" y1="432" x2="700" y2="448" stroke="#67e8f9" stroke-width="1"/>
  <rect x="662" y="448" width="78" height="18" rx="3" fill="#ecfeff"/>
  <text x="701" y="461" text-anchor="middle" font-size="9.5" fill="#0891b2">cartStore.ts</text>
  <line x1="700" y1="466" x2="700" y2="482" stroke="#67e8f9" stroke-width="1"/>
  <rect x="662" y="482" width="78" height="18" rx="3" fill="#ecfeff"/>
  <text x="701" y="495" text-anchor="middle" font-size="9.5" fill="#0891b2">categoryStore.ts</text>

  <line x1="772" y1="316" x2="772" y2="336" stroke="#67e8f9" stroke-width="1.5"/>
  <rect x="730" y="336" width="84" height="26" rx="5" fill="#cffafe" stroke="#0891b2" stroke-width="1"/>
  <text x="772" y="353" text-anchor="middle" font-size="11" fill="#0e7490">openai/</text>
  <line x1="772" y1="362" x2="772" y2="380" stroke="#67e8f9" stroke-width="1"/>
  <rect x="734" y="380" width="78" height="18" rx="3" fill="#ecfeff"/>
  <text x="773" y="393" text-anchor="middle" font-size="9.5" fill="#0891b2">client.ts</text>
  <line x1="772" y1="398" x2="772" y2="414" stroke="#67e8f9" stroke-width="1"/>
  <rect x="734" y="414" width="78" height="18" rx="3" fill="#ecfeff"/>
  <text x="773" y="427" text-anchor="middle" font-size="9.5" fill="#0891b2">prompt.ts</text>
  <line x1="772" y1="432" x2="772" y2="448" stroke="#67e8f9" stroke-width="1"/>
  <rect x="734" y="448" width="78" height="18" rx="3" fill="#ecfeff"/>
  <text x="773" y="461" text-anchor="middle" font-size="9.5" fill="#0891b2">validateAnswers</text>

  <!-- ======= COLUMN 5: hooks/ ======= -->
  <rect x="770" y="248" width="200" height="38" rx="8" fill="#faf5ff" stroke="#9333ea" stroke-width="1.5"/>
  <text x="870" y="268" text-anchor="middle" font-size="14" font-weight="bold" fill="#7e22ce">📁 hooks/</text>
  <text x="870" y="282" text-anchor="middle" font-size="10" fill="#9333ea">커스텀 React Hooks</text>

  <line x1="870" y1="286" x2="870" y2="316" stroke="#d8b4fe" stroke-width="1.5" stroke-dasharray="4 2"/>
  <line x1="820" y1="316" x2="920" y2="316" stroke="#d8b4fe" stroke-width="1.5"/>

  <line x1="830" y1="316" x2="830" y2="336" stroke="#d8b4fe" stroke-width="1.5"/>
  <rect x="792" y="336" width="76" height="26" rx="5" fill="#ede9fe" stroke="#9333ea" stroke-width="1"/>
  <text x="830" y="353" text-anchor="middle" font-size="11" fill="#7e22ce">auth/</text>
  <line x1="830" y1="362" x2="830" y2="380" stroke="#d8b4fe" stroke-width="1"/>
  <rect x="792" y="380" width="76" height="18" rx="3" fill="#faf5ff"/>
  <text x="830" y="393" text-anchor="middle" font-size="9.5" fill="#9333ea">useHasHydrated</text>
  <line x1="830" y1="398" x2="830" y2="414" stroke="#d8b4fe" stroke-width="1"/>
  <rect x="792" y="414" width="76" height="18" rx="3" fill="#faf5ff"/>
  <text x="830" y="427" text-anchor="middle" font-size="9.5" fill="#9333ea">useDaumPostcode</text>

  <line x1="910" y1="316" x2="910" y2="336" stroke="#d8b4fe" stroke-width="1.5"/>
  <rect x="872" y="336" width="76" height="26" rx="5" fill="#ede9fe" stroke="#9333ea" stroke-width="1"/>
  <text x="910" y="353" text-anchor="middle" font-size="11" fill="#7e22ce">etc/</text>
  <line x1="910" y1="362" x2="910" y2="380" stroke="#d8b4fe" stroke-width="1"/>
  <rect x="872" y="380" width="76" height="18" rx="3" fill="#faf5ff"/>
  <text x="910" y="393" text-anchor="middle" font-size="9.5" fill="#9333ea">common / order</text>
  <line x1="910" y1="398" x2="910" y2="414" stroke="#d8b4fe" stroke-width="1"/>
  <rect x="872" y="414" width="76" height="18" rx="3" fill="#faf5ff"/>
  <text x="910" y="427" text-anchor="middle" font-size="9.5" fill="#9333ea">user hooks</text>

  <!-- ======= COLUMN 6: types/ ======= -->
  <rect x="940" y="248" width="200" height="38" rx="8" fill="#fff1f2" stroke="#e11d48" stroke-width="1.5"/>
  <text x="1040" y="268" text-anchor="middle" font-size="14" font-weight="bold" fill="#be123c">📁 types/</text>
  <text x="1040" y="282" text-anchor="middle" font-size="10" fill="#e11d48">TypeScript 타입 정의</text>

  <line x1="1040" y1="286" x2="1040" y2="316" stroke="#fda4af" stroke-width="1.5" stroke-dasharray="4 2"/>
  <line x1="970" y1="316" x2="1110" y2="316" stroke="#fda4af" stroke-width="1.5"/>

  <line x1="976" y1="316" x2="976" y2="336" stroke="#fda4af" stroke-width="1"/>
  <rect x="952" y="336" width="52" height="20" rx="3" fill="#ffe4e6"/>
  <text x="978" y="350" text-anchor="middle" font-size="9.5" fill="#e11d48">api.types</text>
  <line x1="1040" y1="316" x2="1040" y2="336" stroke="#fda4af" stroke-width="1"/>
  <rect x="1012" y="336" width="60" height="20" rx="3" fill="#ffe4e6"/>
  <text x="1042" y="350" text-anchor="middle" font-size="9.5" fill="#e11d48">product.types</text>
  <line x1="1104" y1="316" x2="1104" y2="336" stroke="#fda4af" stroke-width="1"/>
  <rect x="1074" y="336" width="60" height="20" rx="3" fill="#ffe4e6"/>
  <text x="1104" y="350" text-anchor="middle" font-size="9.5" fill="#e11d48">cart.types</text>

  <line x1="976" y1="356" x2="976" y2="372" stroke="#fda4af" stroke-width="1"/>
  <rect x="952" y="372" width="52" height="20" rx="3" fill="#ffe4e6"/>
  <text x="978" y="386" text-anchor="middle" font-size="9.5" fill="#e11d48">user.types</text>
  <line x1="1040" y1="356" x2="1040" y2="372" stroke="#fda4af" stroke-width="1"/>
  <rect x="1012" y="372" width="60" height="20" rx="3" fill="#ffe4e6"/>
  <text x="1042" y="386" text-anchor="middle" font-size="9.5" fill="#e11d48">order.types</text>
  <line x1="1104" y1="356" x2="1104" y2="372" stroke="#fda4af" stroke-width="1"/>
  <rect x="1074" y="372" width="60" height="20" rx="3" fill="#ffe4e6"/>
  <text x="1104" y="386" text-anchor="middle" font-size="9.5" fill="#e11d48">review.types</text>

  <line x1="976" y1="392" x2="976" y2="408" stroke="#fda4af" stroke-width="1"/>
  <rect x="946" y="408" width="64" height="20" rx="3" fill="#ffe4e6"/>
  <text x="978" y="422" text-anchor="middle" font-size="9.5" fill="#e11d48">checkout.types</text>
  <line x1="1040" y1="392" x2="1040" y2="408" stroke="#fda4af" stroke-width="1"/>
  <rect x="1010" y="408" width="62" height="20" rx="3" fill="#ffe4e6"/>
  <text x="1041" y="422" text-anchor="middle" font-size="9.5" fill="#e11d48">mypage.types</text>
  <line x1="1104" y1="392" x2="1104" y2="408" stroke="#fda4af" stroke-width="1"/>
  <rect x="1070" y="408" width="68" height="20" rx="3" fill="#ffe4e6"/>
  <text x="1104" y="422" text-anchor="middle" font-size="9.5" fill="#e11d48">recommend.types</text>

  <line x1="1040" y1="428" x2="1040" y2="444" stroke="#fda4af" stroke-width="1"/>
  <rect x="1006" y="444" width="70" height="20" rx="3" fill="#ffe4e6"/>
  <text x="1041" y="458" text-anchor="middle" font-size="9.5" fill="#e11d48">aitest / bookmark</text>

  <!-- ======= COLUMN 7: public/ + config ======= -->
  <rect x="1110" y="248" width="200" height="38" rx="8" fill="#f8fafc" stroke="#64748b" stroke-width="1.5"/>
  <text x="1210" y="268" text-anchor="middle" font-size="14" font-weight="bold" fill="#334155">📁 public/ + 설정</text>
  <text x="1210" y="282" text-anchor="middle" font-size="10" fill="#64748b">정적 자산 · 프로젝트 설정</text>

  <line x1="1210" y1="286" x2="1210" y2="316" stroke="#cbd5e1" stroke-width="1.5" stroke-dasharray="4 2"/>
  <line x1="1140" y1="316" x2="1280" y2="316" stroke="#cbd5e1" stroke-width="1.5"/>

  <line x1="1150" y1="316" x2="1150" y2="336" stroke="#cbd5e1" stroke-width="1"/>
  <rect x="1112" y="336" width="76" height="26" rx="5" fill="#f1f5f9" stroke="#64748b" stroke-width="1"/>
  <text x="1150" y="353" text-anchor="middle" font-size="11" fill="#334155">public/</text>
  <line x1="1150" y1="362" x2="1150" y2="380" stroke="#cbd5e1" stroke-width="1"/>
  <rect x="1114" y="380" width="74" height="18" rx="3" fill="#f8fafc"/>
  <text x="1151" y="393" text-anchor="middle" font-size="9.5" fill="#64748b">이미지 / 아이콘</text>
  <line x1="1150" y1="398" x2="1150" y2="414" stroke="#cbd5e1" stroke-width="1"/>
  <rect x="1114" y="414" width="74" height="18" rx="3" fill="#f8fafc"/>
  <text x="1151" y="427" text-anchor="middle" font-size="9.5" fill="#64748b">SVG assets</text>

  <line x1="1270" y1="316" x2="1270" y2="336" stroke="#cbd5e1" stroke-width="1"/>
  <rect x="1228" y="336" width="84" height="26" rx="5" fill="#f1f5f9" stroke="#64748b" stroke-width="1"/>
  <text x="1270" y="353" text-anchor="middle" font-size="11" fill="#334155">Config</text>
  <line x1="1270" y1="362" x2="1270" y2="380" stroke="#cbd5e1" stroke-width="1"/>
  <rect x="1232" y="380" width="78" height="18" rx="3" fill="#f8fafc"/>
  <text x="1271" y="393" text-anchor="middle" font-size="9.5" fill="#64748b">next.config.ts</text>
  <line x1="1270" y1="398" x2="1270" y2="414" stroke="#cbd5e1" stroke-width="1"/>
  <rect x="1232" y="414" width="78" height="18" rx="3" fill="#f8fafc"/>
  <text x="1271" y="427" text-anchor="middle" font-size="9.5" fill="#64748b">tsconfig.json</text>
  <line x1="1270" y1="432" x2="1270" y2="448" stroke="#cbd5e1" stroke-width="1"/>
  <rect x="1232" y="448" width="78" height="18" rx="3" fill="#f8fafc"/>
  <text x="1271" y="461" text-anchor="middle" font-size="9.5" fill="#64748b">eslint.config</text>
  <line x1="1270" y1="466" x2="1270" y2="482" stroke="#cbd5e1" stroke-width="1"/>
  <rect x="1232" y="482" width="78" height="18" rx="3" fill="#f8fafc"/>
  <text x="1271" y="495" text-anchor="middle" font-size="9.5" fill="#64748b">postcss.config</text>

  <!-- ===== SEPARATOR ===== -->
  <line x1="60" y1="650" x2="1340" y2="650" stroke="#e2e8f0" stroke-width="1.5" stroke-dasharray="6 3"/>

  <!-- ===== SECTION 2: ROUTING ARCHITECTURE ===== -->
  <text x="700" y="680" text-anchor="middle" font-size="20" font-weight="bold" fill="#1e293b">라우팅 아키텍처 (Route Groups)</text>

  <!-- (auth) group -->
  <rect x="60" y="700" width="300" height="160" rx="10" fill="#eef2ff" stroke="#6366f1" stroke-width="2"/>
  <text x="210" y="726" text-anchor="middle" font-size="14" font-weight="bold" fill="#4338ca">(auth) — 인증 레이아웃</text>
  <line x1="80" y1="734" x2="340" y2="734" stroke="#a5b4fc" stroke-width="1"/>
  <text x="80" y="754" font-size="11" fill="#4338ca">• /login — 로그인 폼 (Zod 검증)</text>
  <text x="80" y="772" font-size="11" fill="#4338ca">• /signup — 회원가입 폼</text>
  <text x="80" y="790" font-size="11" fill="#4338ca">• /login/callback/naver — 네이버 OAuth</text>
  <text x="80" y="808" font-size="11" fill="#4338ca">• 별도 레이아웃 (Header 없음)</text>
  <text x="80" y="826" font-size="11" fill="#4338ca">• SignupForm / LoginForm 컴포넌트</text>
  <text x="80" y="844" font-size="11" fill="#4338ca">• useHasHydrated 로 SSR 하이드레이션 처리</text>

  <!-- (public) group -->
  <rect x="380" y="700" width="300" height="160" rx="10" fill="#f0fdf4" stroke="#16a34a" stroke-width="2"/>
  <text x="530" y="726" text-anchor="middle" font-size="14" font-weight="bold" fill="#15803d">(public) — 공개 페이지</text>
  <line x1="400" y1="734" x2="660" y2="734" stroke="#86efac" stroke-width="1"/>
  <text x="400" y="754" font-size="11" fill="#15803d">• /intro — 서비스 소개 (랜딩)</text>
  <text x="400" y="772" font-size="11" fill="#15803d">• /recommend — AI 선물 추천 (질문 흐름)</text>
  <text x="400" y="790" font-size="11" fill="#15803d">• /recommend/result — 추천 결과 리스트</text>
  <text x="400" y="808" font-size="11" fill="#15803d">• Header/Footer 없는 독립 레이아웃</text>
  <text x="400" y="826" font-size="11" fill="#15803d">• OpenAI API → /api/recommend Route</text>
  <text x="400" y="844" font-size="11" fill="#15803d">• QuestionBox → RecommendClient 흐름</text>

  <!-- (with-layout) group -->
  <rect x="700" y="700" width="300" height="160" rx="10" fill="#ecfeff" stroke="#0891b2" stroke-width="2"/>
  <text x="850" y="726" text-anchor="middle" font-size="14" font-weight="bold" fill="#0e7490">(with-layout) — 공통 레이아웃</text>
  <line x1="720" y1="734" x2="980" y2="734" stroke="#67e8f9" stroke-width="1"/>
  <text x="720" y="754" font-size="11" fill="#0e7490">• / (홈) — 배너 Swiper + 카테고리 섹션</text>
  <text x="720" y="772" font-size="11" fill="#0e7490">• /products/[category]/[sub]/[id]</text>
  <text x="720" y="790" font-size="11" fill="#0e7490">• /products/[[...categories]] — 목록/필터</text>
  <text x="720" y="808" font-size="11" fill="#0e7490">• /cart — 장바구니 (Zustand cartStore)</text>
  <text x="720" y="826" font-size="11" fill="#0e7490">• Header(Mobile+Desktop) + Footer 포함</text>
  <text x="720" y="844" font-size="11" fill="#0e7490">• (protected) — 인증 필요 페이지 중첩</text>

  <!-- (protected) group -->
  <rect x="1020" y="700" width="300" height="160" rx="10" fill="#faf5ff" stroke="#9333ea" stroke-width="2"/>
  <text x="1170" y="726" text-anchor="middle" font-size="14" font-weight="bold" fill="#7e22ce">(protected) — 인증 보호</text>
  <line x1="1040" y1="734" x2="1300" y2="734" stroke="#d8b4fe" stroke-width="1"/>
  <text x="1040" y="754" font-size="11" fill="#7e22ce">• /mypage — 대시보드</text>
  <text x="1040" y="772" font-size="11" fill="#7e22ce">• /mypage/orders/[id] — 주문 상세</text>
  <text x="1040" y="790" font-size="11" fill="#7e22ce">• /mypage/reviews/[reviewId] — 리뷰</text>
  <text x="1040" y="808" font-size="11" fill="#7e22ce">• /mypage/wishlist — 찜 목록</text>
  <text x="1040" y="826" font-size="11" fill="#7e22ce">• /mypage/profile — 프로필 수정</text>
  <text x="1040" y="844" font-size="11" fill="#7e22ce">• /checkout + /checkout/result</text>

  <!-- ===== SEPARATOR ===== -->
  <line x1="60" y1="880" x2="1340" y2="880" stroke="#e2e8f0" stroke-width="1.5" stroke-dasharray="6 3"/>

  <!-- ===== SECTION 3: STATE MANAGEMENT ===== -->
  <text x="700" y="910" text-anchor="middle" font-size="20" font-weight="bold" fill="#1e293b">상태 관리 아키텍처 (Zustand)</text>

  <!-- authStore -->
  <rect x="60" y="930" width="260" height="130" rx="10" fill="#fff7ed" stroke="#ea580c" stroke-width="2"/>
  <text x="190" y="955" text-anchor="middle" font-size="13" font-weight="bold" fill="#c2410c">authStore.ts</text>
  <line x1="80" y1="962" x2="300" y2="962" stroke="#fdba74" stroke-width="1"/>
  <text x="80" y="980" font-size="10.5" fill="#c2410c">state: accessToken, isLoggedIn</text>
  <text x="80" y="996" font-size="10.5" fill="#c2410c">actions: login(), logout()</text>
  <text x="80" y="1012" font-size="10.5" fill="#c2410c">persist: localStorage</text>
  <text x="80" y="1028" font-size="10.5" fill="#c2410c">SSR guard: useHasHydrated hook</text>
  <text x="80" y="1044" font-size="10.5" fill="#c2410c">네이버 OAuth 토큰 처리 포함</text>

  <!-- userStore -->
  <rect x="340" y="930" width="260" height="130" rx="10" fill="#eff6ff" stroke="#2563eb" stroke-width="2"/>
  <text x="470" y="955" text-anchor="middle" font-size="13" font-weight="bold" fill="#1d4ed8">userStore.ts</text>
  <line x1="360" y1="962" x2="580" y2="962" stroke="#93c5fd" stroke-width="1"/>
  <text x="360" y="980" font-size="10.5" fill="#1d4ed8">state: userId, userName, email</text>
  <text x="360" y="996" font-size="10.5" fill="#1d4ed8">actions: setUser(), clearUser()</text>
  <text x="360" y="1012" font-size="10.5" fill="#1d4ed8">persist: localStorage</text>
  <text x="360" y="1028" font-size="10.5" fill="#1d4ed8">로그인 후 프로필 정보 저장</text>

  <!-- cartStore -->
  <rect x="620" y="930" width="260" height="130" rx="10" fill="#f0fdf4" stroke="#16a34a" stroke-width="2"/>
  <text x="750" y="955" text-anchor="middle" font-size="13" font-weight="bold" fill="#15803d">cartStore.ts</text>
  <line x1="640" y1="962" x2="860" y2="962" stroke="#86efac" stroke-width="1"/>
  <text x="640" y="980" font-size="10.5" fill="#15803d">state: cartItems[], selectedIds[]</text>
  <text x="640" y="996" font-size="10.5" fill="#15803d">actions: add/remove/update/clear</text>
  <text x="640" y="1012" font-size="10.5" fill="#15803d">선택 상태 관리 (체크박스)</text>
  <text x="640" y="1028" font-size="10.5" fill="#15803d">총액 계산 selector 포함</text>
  <text x="640" y="1044" font-size="10.5" fill="#15803d">API 동기화 (lib/api/cart.ts)</text>

  <!-- categoryStore -->
  <rect x="900" y="930" width="260" height="130" rx="10" fill="#fdf4ff" stroke="#a21caf" stroke-width="2"/>
  <text x="1030" y="955" text-anchor="middle" font-size="13" font-weight="bold" fill="#86198f">categoryStore.ts</text>
  <line x1="920" y1="962" x2="1140" y2="962" stroke="#e879f9" stroke-width="1"/>
  <text x="920" y="980" font-size="10.5" fill="#86198f">state: categories[], selectedCat</text>
  <text x="920" y="996" font-size="10.5" fill="#86198f">actions: setCategories()</text>
  <text x="920" y="1012" font-size="10.5" fill="#86198f">CategoryInit 컴포넌트로 초기화</text>
  <text x="920" y="1028" font-size="10.5" fill="#86198f">Header 드롭다운과 연동</text>
  <text x="920" y="1044" font-size="10.5" fill="#86198f">lib/api/codes.ts 카테고리 코드</text>

  <!-- ===== SEPARATOR ===== -->
  <line x1="60" y1="1080" x2="1340" y2="1080" stroke="#e2e8f0" stroke-width="1.5" stroke-dasharray="6 3"/>

  <!-- ===== SECTION 4: DATA FLOW ===== -->
  <text x="700" y="1110" text-anchor="middle" font-size="20" font-weight="bold" fill="#1e293b">데이터 흐름 (API Layer)</text>

  <!-- fetchClient -->
  <rect x="580" y="1130" width="240" height="60" rx="10" fill="#f1f5f9" stroke="#64748b" stroke-width="2"/>
  <text x="700" y="1155" text-anchor="middle" font-size="13" font-weight="bold" fill="#1e293b">fetchClient.ts</text>
  <text x="700" y="1175" text-anchor="middle" font-size="10.5" fill="#475569">Axios 인스턴스 · Bearer Token 자동 주입</text>

  <!-- Arrow marker definition -->
  <defs>
    <marker id="arrowSlate" markerWidth="8" markerHeight="8" refX="6" refY="3" orient="auto">
      <path d="M0,0 L0,6 L8,3 z" fill="#94a3b8"/>
    </marker>
  </defs>

  <line x1="580" y1="1160" x2="460" y2="1160" stroke="#94a3b8" stroke-width="1.5" marker-end="url(#arrowSlate)"/>
  <line x1="820" y1="1160" x2="940" y2="1160" stroke="#94a3b8" stroke-width="1.5" marker-end="url(#arrowSlate)"/>
  <line x1="700" y1="1190" x2="700" y2="1220" stroke="#94a3b8" stroke-width="1.5" marker-end="url(#arrowSlate)"/>

  <rect x="300" y="1140" width="160" height="40" rx="8" fill="#f8fafc" stroke="#cbd5e1" stroke-width="1"/>
  <text x="380" y="1165" text-anchor="middle" font-size="11" fill="#475569">auth.ts / users.ts</text>
  <rect x="940" y="1140" width="160" height="40" rx="8" fill="#f8fafc" stroke="#cbd5e1" stroke-width="1"/>
  <text x="1020" y="1165" text-anchor="middle" font-size="11" fill="#475569">cart.ts / checkout.ts</text>
  <rect x="610" y="1220" width="180" height="40" rx="8" fill="#f8fafc" stroke="#cbd5e1" stroke-width="1"/>
  <text x="700" y="1245" text-anchor="middle" font-size="11" fill="#475569">products.ts / mypage.ts</text>

  <!-- ===== SECTION 5: COMPONENT LAYER ===== -->
  <line x1="60" y1="1290" x2="1340" y2="1290" stroke="#e2e8f0" stroke-width="1.5" stroke-dasharray="6 3"/>
  <text x="700" y="1320" text-anchor="middle" font-size="20" font-weight="bold" fill="#1e293b">컴포넌트 계층 구조 (Page → Component)</text>

  <!-- Page layer -->
  <rect x="60" y="1340" width="1280" height="50" rx="8" fill="#f8fafc" stroke="#cbd5e1" stroke-width="1.5"/>
  <text x="700" y="1360" text-anchor="middle" font-size="12" font-weight="bold" fill="#334155">Page Layer (Server Component / async)</text>
  <text x="700" y="1378" text-anchor="middle" font-size="11" fill="#64748b">page.tsx — 데이터 fetch (lib/api/*) · 메타데이터 · 초기 서버 렌더링</text>

  <defs>
    <marker id="arrowDown" markerWidth="8" markerHeight="8" refX="4" refY="6" orient="auto">
      <path d="M1,1 L4,7 L7,1" stroke="#94a3b8" stroke-width="1.5" fill="none"/>
    </marker>
  </defs>
  <line x1="700" y1="1390" x2="700" y2="1410" stroke="#94a3b8" stroke-width="2" marker-end="url(#arrowDown)"/>

  <!-- Client Component layer -->
  <rect x="60" y="1410" width="1280" height="50" rx="8" fill="#ecfeff" stroke="#0891b2" stroke-width="1.5"/>
  <text x="700" y="1430" text-anchor="middle" font-size="12" font-weight="bold" fill="#0e7490">Client Layer (*Client.tsx / 'use client')</text>
  <text x="700" y="1448" text-anchor="middle" font-size="11" fill="#0891b2">상태 관리 (Zustand) · 이벤트 핸들러 · TanStack Query · 사용자 인터랙션</text>

  <line x1="700" y1="1460" x2="700" y2="1480" stroke="#94a3b8" stroke-width="2" marker-end="url(#arrowDown)"/>

  <!-- UI Components layer -->
  <rect x="60" y="1480" width="1280" height="50" rx="8" fill="#f0fdf4" stroke="#16a34a" stroke-width="1.5"/>
  <text x="700" y="1500" text-anchor="middle" font-size="12" font-weight="bold" fill="#15803d">UI Components (_components/ · components/ui/)</text>
  <text x="700" y="1518" text-anchor="middle" font-size="11" fill="#16a34a">순수 표현 컴포넌트 · props 기반 · Button, Modal, Input, Loading 등</text>

  <line x1="700" y1="1530" x2="700" y2="1550" stroke="#94a3b8" stroke-width="2" marker-end="url(#arrowDown)"/>

  <!-- Types layer -->
  <rect x="60" y="1550" width="1280" height="50" rx="8" fill="#fff1f2" stroke="#e11d48" stroke-width="1.5"/>
  <text x="700" y="1570" text-anchor="middle" font-size="12" font-weight="bold" fill="#be123c">Types Layer (types/*.types.ts)</text>
  <text x="700" y="1588" text-anchor="middle" font-size="11" fill="#e11d48">API 응답 타입 · 컴포넌트 props 타입 · Zod 스키마 검증 타입</text>

  <!-- ===== FOOTER ===== -->
  <line x1="60" y1="1630" x2="1340" y2="1630" stroke="#e2e8f0" stroke-width="1.5"/>
  <text x="700" y="1653" text-anchor="middle" font-size="11" fill="#64748b">Linting: ESLint + Prettier + Husky (pre-commit) + lint-staged</text>
  <text x="700" y="1671" text-anchor="middle" font-size="11" fill="#64748b">결제: iamport (IMP) · 주소: 다음 우편번호 API · 소셜 로그인: Naver OAuth</text>
  <text x="700" y="1689" text-anchor="middle" font-size="11" fill="#64748b">AI: OpenAI API (GPT) → 선물 추천 · API Route: /api/recommend</text>

  <rect x="60" y="1710" width="1280" height="160" rx="10" fill="#f8fafc" stroke="#e2e8f0" stroke-width="1.5"/>
  <text x="700" y="1736" text-anchor="middle" font-size="14" font-weight="bold" fill="#1e293b">핵심 설계 원칙</text>
  <text x="90" y="1758" font-size="11" fill="#334155">1. Route Groups으로 레이아웃 분리 — 인증/공개/보호/공통 4가지 영역 명확히 구분</text>
  <text x="90" y="1778" font-size="11" fill="#334155">2. 서버/클라이언트 컴포넌트 역할 분리 — page.tsx(서버 fetch) + *Client.tsx(상태·이벤트)</text>
  <text x="90" y="1798" font-size="11" fill="#334155">3. lib/api/ 계층 분리 — fetchClient 공통 인스턴스 위에 도메인별 API 함수 구성</text>
  <text x="90" y="1818" font-size="11" fill="#334155">4. Zustand persist — 새로고침 후에도 인증/장바구니 상태 유지, SSR 하이드레이션 처리</text>
  <text x="90" y="1838" font-size="11" fill="#334155">5. 타입 안전성 — TypeScript strict + Zod 런타임 검증 (폼 입력) + 도메인별 types 파일</text>
</svg>
